<svg width="42" height="43" viewBox="0 0 42 43" fill="none" xmlns="http://www.w3.org/2000/svg">
<g id="github">
<path id="Vector" d="M21.6053 13.7142C16.8514 13.7142 13 17.5689 13 22.3195C13 26.1236 15.4654 29.348 18.8823 30.4855C19.3142 30.5667 19.4701 30.3005 19.4701 30.0703C19.4701 29.8659 19.4653 29.3254 19.4621 28.6079C17.0671 29.1264 16.5626 27.451 16.5626 27.451C16.1705 26.4592 15.6047 26.193 15.6047 26.193C14.8259 25.6611 15.6666 25.6724 15.6666 25.6724C16.5293 25.731 16.9832 26.5571 16.9832 26.5571C17.7507 27.8738 18.9968 27.493 19.49 27.2714C19.5653 26.7169 19.7896 26.3355 20.0338 26.1231C18.1234 25.9074 16.1146 25.1679 16.1146 21.8705C16.1146 20.9287 16.448 20.1618 16.9993 19.5594C16.9041 19.3437 16.6126 18.4671 17.0752 17.2817C17.0752 17.2817 17.7953 17.052 19.4416 18.1643C20.1306 17.9733 20.862 17.8781 21.593 17.8733C22.3244 17.8781 23.0553 17.9739 23.7443 18.1643C25.3809 17.052 26.1005 17.2817 26.1005 17.2817C26.5625 18.4671 26.271 19.3432 26.1871 19.5594C26.733 20.1618 27.0665 20.9293 27.0665 21.8705C27.0665 25.1754 25.055 25.9042 23.1425 26.1145C23.4415 26.3721 23.7217 26.9019 23.7217 27.7059C23.7217 28.8569 23.7109 29.7841 23.7109 30.0643C23.7109 30.2881 23.8615 30.557 24.3047 30.4704C27.7468 29.3447 30.2096 26.1177 30.2096 22.319C30.2096 17.5683 26.3582 13.7137 21.6043 13.7137L21.6053 13.7142Z" fill="black"/>
</g>
</svg>
