<svg xmlns="http://www.w3.org/2000/svg">
    <path d="M4.58334 8.02084C4.58334 7.10916 4.94551 6.23482 5.59016 5.59016C6.23482 4.94551 7.10916 4.58334 8.02084 4.58334H14.8958C15.8075 4.58334 16.6819 4.94551 17.3265 5.59016C17.9712 6.23482 18.3333 7.10916 18.3333 8.02084V14.8958C18.3333 15.8075 17.9712 16.6819 17.3265 17.3265C16.6819 17.9712 15.8075 18.3333 14.8958 18.3333H8.02084C7.10916 18.3333 6.23482 17.9712 5.59016 17.3265C4.94551 16.6819 4.58334 15.8075 4.58334 14.8958V8.02084ZM21.7708 8.02084C21.7708 7.10916 22.133 6.23482 22.7777 5.59016C23.4223 4.94551 24.2967 4.58334 25.2083 4.58334H32.0833C32.995 4.58334 33.8694 4.94551 34.514 5.59016C35.1587 6.23482 35.5208 7.10916 35.5208 8.02084V14.8958C35.5208 15.8075 35.1587 16.6819 34.514 17.3265C33.8694 17.9712 32.995 18.3333 32.0833 18.3333H25.2083C24.2967 18.3333 23.4223 17.9712 22.7777 17.3265C22.133 16.6819 21.7708 15.8075 21.7708 14.8958V8.02084ZM38.9583 8.02084C38.9583 7.10916 39.3205 6.23482 39.9652 5.59016C40.6098 4.94551 41.4842 4.58334 42.3958 4.58334H49.2708C50.1825 4.58334 51.0569 4.94551 51.7015 5.59016C52.3462 6.23482 52.7083 7.10916 52.7083 8.02084V14.8958C52.7083 15.8075 52.3462 16.6819 51.7015 17.3265C51.0569 17.9712 50.1825 18.3333 49.2708 18.3333H42.3958C41.4842 18.3333 40.6098 17.9712 39.9652 17.3265C39.3205 16.6819 38.9583 15.8075 38.9583 14.8958V8.02084ZM4.58334 25.2083C4.58334 24.2967 4.94551 23.4223 5.59016 22.7777C6.23482 22.133 7.10916 21.7708 8.02084 21.7708H14.8958C15.8075 21.7708 16.6819 22.133 17.3265 22.7777C17.9712 23.4223 18.3333 24.2967 18.3333 25.2083V32.0833C18.3333 32.995 17.9712 33.8694 17.3265 34.514C16.6819 35.1587 15.8075 35.5208 14.8958 35.5208H8.02084C7.10916 35.5208 6.23482 35.1587 5.59016 34.514C4.94551 33.8694 4.58334 32.995 4.58334 32.0833V25.2083ZM21.7708 25.2083C21.7708 24.2967 22.133 23.4223 22.7777 22.7777C23.4223 22.133 24.2967 21.7708 25.2083 21.7708H32.0833C32.995 21.7708 33.8694 22.133 34.514 22.7777C35.1587 23.4223 35.5208 24.2967 35.5208 25.2083V32.0833C35.5208 32.995 35.1587 33.8694 34.514 34.514C33.8694 35.1587 32.995 35.5208 32.0833 35.5208H25.2083C24.2967 35.5208 23.4223 35.1587 22.7777 34.514C22.133 33.8694 21.7708 32.995 21.7708 32.0833V25.2083ZM38.9583 25.2083C38.9583 24.2967 39.3205 23.4223 39.9652 22.7777C40.6098 22.133 41.4842 21.7708 42.3958 21.7708H49.2708C50.1825 21.7708 51.0569 22.133 51.7015 22.7777C52.3462 23.4223 52.7083 24.2967 52.7083 25.2083V32.0833C52.7083 32.995 52.3462 33.8694 51.7015 34.514C51.0569 35.1587 50.1825 35.5208 49.2708 35.5208H42.3958C41.4842 35.5208 40.6098 35.1587 39.9652 34.514C39.3205 33.8694 38.9583 32.995 38.9583 32.0833V25.2083ZM4.58334 42.3958C4.58334 41.4842 4.94551 40.6098 5.59016 39.9652C6.23482 39.3205 7.10916 38.9583 8.02084 38.9583H14.8958C15.8075 38.9583 16.6819 39.3205 17.3265 39.9652C17.9712 40.6098 18.3333 41.4842 18.3333 42.3958V49.2708C18.3333 50.1825 17.9712 51.0569 17.3265 51.7015C16.6819 52.3462 15.8075 52.7083 14.8958 52.7083H8.02084C7.10916 52.7083 6.23482 52.3462 5.59016 51.7015C4.94551 51.0569 4.58334 50.1825 4.58334 49.2708V42.3958ZM21.7708 42.3958C21.7708 41.4842 22.133 40.6098 22.7777 39.9652C23.4223 39.3205 24.2967 38.9583 25.2083 38.9583H32.0833C32.995 38.9583 33.8694 39.3205 34.514 39.9652C35.1587 40.6098 35.5208 41.4842 35.5208 42.3958V49.2708C35.5208 50.1825 35.1587 51.0569 34.514 51.7015C33.8694 52.3462 32.995 52.7083 32.0833 52.7083H25.2083C24.2967 52.7083 23.4223 52.3462 22.7777 51.7015C22.133 51.0569 21.7708 50.1825 21.7708 49.2708V42.3958ZM38.9583 42.3958C38.9583 41.4842 39.3205 40.6098 39.9652 39.9652C40.6098 39.3205 41.4842 38.9583 42.3958 38.9583H49.2708C50.1825 38.9583 51.0569 39.3205 51.7015 39.9652C52.3462 40.6098 52.7083 41.4842 52.7083 42.3958V49.2708C52.7083 50.1825 52.3462 51.0569 51.7015 51.7015C51.0569 52.3462 50.1825 52.7083 49.2708 52.7083H42.3958C41.4842 52.7083 40.6098 52.3462 39.9652 51.7015C39.3205 51.0569 38.9583 50.1825 38.9583 49.2708V42.3958Z"/>
</svg>
