<svg width="43" height="43" viewBox="0 0 43 43" fill="none" xmlns="http://www.w3.org/2000/svg">
<g id="linkedin">
<path id="Vector" d="M27.4096 14.7137H14.1488C13.5146 14.7137 13 15.2162 13 15.835V29.1531C13 29.7728 13.5146 30.2759 14.1488 30.2759H27.4096C28.0442 30.2759 28.5623 29.7728 28.5623 29.1531V15.835C28.5623 15.2162 28.0442 14.7137 27.4096 14.7137ZM17.6155 27.9749H15.3062V20.5484H17.6155V27.9749ZM16.4609 19.533C15.721 19.533 15.123 18.9334 15.123 18.1942C15.123 17.4561 15.721 16.8565 16.4609 16.8565C17.199 16.8565 17.7986 17.4561 17.7986 18.1942C17.7986 18.9334 17.199 19.533 16.4609 19.533ZM26.2603 27.9749H23.9547V24.3636C23.9547 23.502 23.9379 22.3943 22.7549 22.3943C21.5536 22.3943 21.3705 23.3326 21.3705 24.3011V27.9751H19.0632V20.5484H21.2776V21.5626H21.3092C21.6174 20.979 22.3704 20.3632 23.4935 20.3632C25.8291 20.3632 26.2606 21.9009 26.2606 23.9013L26.2603 27.9749Z" fill="black"/>
</g>
</svg>
