<svg width="43" height="43" viewBox="0 0 43 43" fill="none" xmlns="http://www.w3.org/2000/svg">
<g id="telegram">
<g id="&#240;&#159;&#166;&#134; icon &#34;telegram&#34;">
<path id="Vector" d="M21.7811 13.7137C20.2422 13.7137 18.7378 14.17 17.4582 15.025C16.1786 15.88 15.1812 17.0953 14.5923 18.5171C14.0034 19.9389 13.8493 21.5034 14.1495 23.0128C14.4498 24.5222 15.1908 25.9087 16.279 26.9969C17.3673 28.0851 18.7537 28.8262 20.2631 29.1264C21.7725 29.4267 23.337 29.2726 24.7588 28.6836C26.1807 28.0947 27.3959 27.0974 28.2509 25.8178C29.1059 24.5382 29.5623 23.0338 29.5623 21.4948C29.5624 20.473 29.3611 19.4611 28.9701 18.517C28.5791 17.5729 28.006 16.7151 27.2834 15.9925C26.5609 15.27 25.703 14.6968 24.7589 14.3058C23.8149 13.9148 22.803 13.7136 21.7811 13.7137ZM24.2552 25.504C24.226 25.5766 24.1817 25.6422 24.1252 25.6963C24.0687 25.7504 24.0012 25.7918 23.9274 25.8177C23.8535 25.8436 23.775 25.8534 23.6971 25.8465C23.6192 25.8395 23.5436 25.816 23.4755 25.7775L21.3632 24.1362L20.0074 25.3869C19.976 25.4102 19.9392 25.4251 19.9004 25.4304C19.8617 25.4357 19.8222 25.4312 19.7857 25.4172L20.0456 23.0919L20.0539 23.0985L20.0592 23.0526C20.0592 23.0526 23.8603 19.5919 24.0151 19.4445C24.1719 19.2974 24.1202 19.2655 24.1202 19.2655C24.1291 19.0861 23.8389 19.2655 23.8389 19.2655L18.8025 22.5056L16.7051 21.7913C16.7051 21.7913 16.383 21.6757 16.3526 21.4217C16.3207 21.1696 16.7156 21.0326 16.7156 21.0326L25.0547 17.7198C25.0547 17.7198 25.7402 17.4144 25.7402 17.9202L24.2552 25.504Z" fill="black"/>
</g>
</g>
</svg>
